<svg fill="none" height="128" viewBox="0 0 128 128" width="128" xmlns="http://www.w3.org/2000/svg"><path d="m64.3125 60.25c-9.9942 0-18.125-8.1308-18.125-18.125s8.1308-18.125 18.125-18.125 18.125 8.1308 18.125 18.125-8.1308 18.125-18.125 18.125z" fill="#fff"/><circle cx="93" cy="74" fill="#8d2f1a" r="15"/><g fill="#fff"><path d="m71.3438 73.5312c0-4.0125 1.1265-7.7667 3.0793-10.9636-3.0492 1.5146-6.4812 2.3699-10.1106 2.3699-4.7075 0-9.0863-1.4334-12.7233-3.8866-4.4972 1.7433-8.6228 4.4205-12.1358 7.9335-6.6403 6.6401-10.2972 15.4686-10.2972 24.8592v7.8124c0 1.295 1.0494 2.344 2.3438 2.344h65.625c1.2944 0 2.3438-1.049 2.3438-2.344v-7.8124c0-.1408-.004-.282-.0057-.4231-2.1987.779-4.5633 1.2045-7.0256 1.2045-11.6311 0-21.0937-9.4627-21.0937-21.0938z"/><path d="m92.4375 57.125c-9.0464 0-16.4063 7.3598-16.4063 16.4062 0 9.0465 7.3599 16.4063 16.4063 16.4063 9.0465 0 16.4065-7.3598 16.4065-16.4063 0-9.0464-7.36-16.4062-16.4065-16.4062zm4.6875 18.75h-2.3438v2.3438c0 1.2943-1.0493 2.3437-2.3437 2.3437s-2.3437-1.0494-2.3437-2.3437v-2.3438h-2.3438c-1.2944 0-2.3438-1.0494-2.3438-2.3438 0-1.2943 1.0494-2.3437 2.3438-2.3437h2.3438v-2.3437c0-1.2944 1.0493-2.3438 2.3437-2.3438s2.3437 1.0494 2.3437 2.3438v2.3437h2.3438c1.2944 0 2.3438 1.0494 2.3438 2.3437 0 1.2944-1.0494 2.3438-2.3438 2.3438z"/></g></svg>