<svg width="128" height="128" viewBox="0 0 128 128" fill="none" xmlns="http://www.w3.org/2000/svg">
<rect width="128" height="128" rx="5" fill="white"/>
<rect width="128" height="128" fill="white"/>
<path d="M64.3125 60.25C54.3183 60.25 46.1875 52.1192 46.1875 42.125C46.1875 32.1308 54.3183 24 64.3125 24C74.3067 24 82.4375 32.1308 82.4375 42.125C82.4375 52.1192 74.3067 60.25 64.3125 60.25Z" fill="#1A8D3B"/>
<path d="M71.3438 73.5312C71.3438 69.5187 72.4703 65.7645 74.4231 62.5676C71.3739 64.0822 67.9419 64.9375 64.3125 64.9375C59.605 64.9375 55.2262 63.5041 51.5892 61.0509C47.092 62.7942 42.9664 65.4714 39.4534 68.9844C32.8131 75.6245 29.1562 84.453 29.1562 93.8436V101.656C29.1562 102.951 30.2056 104 31.5 104H97.125C98.4194 104 99.4688 102.951 99.4688 101.656V93.8436C99.4688 93.7028 99.4648 93.5616 99.4631 93.4205C97.2644 94.1995 94.8998 94.625 92.4375 94.625C80.8064 94.625 71.3438 85.1623 71.3438 73.5312V73.5312Z" fill="#1A8D3B"/>
<path d="M92.4375 57.125C83.3911 57.125 76.0312 64.4848 76.0312 73.5312C76.0312 82.5777 83.3911 89.9375 92.4375 89.9375C101.484 89.9375 108.844 82.5777 108.844 73.5312C108.844 64.4848 101.484 57.125 92.4375 57.125ZM97.125 75.875H94.7812V78.2188C94.7812 79.5131 93.7319 80.5625 92.4375 80.5625C91.1431 80.5625 90.0938 79.5131 90.0938 78.2188V75.875H87.75C86.4556 75.875 85.4062 74.8256 85.4062 73.5312C85.4062 72.2369 86.4556 71.1875 87.75 71.1875H90.0938V68.8438C90.0938 67.5494 91.1431 66.5 92.4375 66.5C93.7319 66.5 94.7812 67.5494 94.7812 68.8438V71.1875H97.125C98.4194 71.1875 99.4688 72.2369 99.4688 73.5312C99.4688 74.8256 98.4194 75.875 97.125 75.875Z" fill="#8D2F1A"/>
</svg>
