<svg id="Capa_1" enable-background="new 0 0 514.096 514.096" height="512" viewBox="0 0 514.096 514.096" width="512" xmlns="http://www.w3.org/2000/svg"><g><g><g><path d="m487.824 462.313h-330.725c-10.371 0-18.778-8.407-18.778-18.778v-1.131c0-10.371 8.407-18.778 18.778-18.778h330.725c10.371 0 18.778 8.407 18.778 18.778v1.131c0 10.371-8.407 18.778-18.778 18.778z" fill="#fea95c"/><path d="m487.824 423.626h-45c10.371 0 18.778 8.407 18.778 18.778v1.131c0 10.371-8.407 18.778-18.778 18.778h45c10.371 0 18.778-8.407 18.778-18.778v-1.131c0-10.371-8.407-18.778-18.778-18.778z" fill="#fe9738"/><path d="m480.788 423.626h-316.653l125.95-349.102c10.938-30.317 53.814-30.317 64.752 0z" fill="#fe9738"/><path d="m354.837 74.524c-5.668-15.709-19.91-23.257-33.841-22.686 1.523 2.299 2.821 4.86 3.841 7.686l30.505 84.552c46.446 128.737-48.936 264.55-185.796 264.55l-5.412 15h316.653z" fill="#fe860a"/><path d="m204.138 312.746h236.646l-27.099-75.112h-182.447z" fill="#ffdcce"/><path d="m440.784 312.746-27.1-75.113h-48.256c-3.663 26.838-12.849 52.358-26.537 75.113z" fill="#ffd1be"/></g><g><circle cx="169.453" cy="300.361" fill="#f9f7f8" r="161.952"/><path d="m226.431 148.728c45.077 28.755 74.974 79.201 74.974 136.633 0 89.444-72.508 161.952-161.952 161.952-20.054 0-39.252-3.655-56.978-10.319 25.126 16.028 54.966 25.319 86.978 25.319 89.444 0 161.952-72.508 161.952-161.952 0-69.389-43.644-128.576-104.974-151.633z" fill="#e5e1e5"/><g fill="#918291"><path d="m220.401 146.578-46.246 33.6c-2.804 2.037-6.601 2.037-9.405 0l-46.246-33.6c11.651-3.835 29.249-8.169 50.948-8.169 12.267 0 30.338 1.385 50.949 8.169z"/><path d="m38.941 204.385 17.664 54.366c1.071 3.296-.102 6.907-2.906 8.944l-46.246 33.6c-.064-12.567 1.295-31.272 8.457-52.571 6.638-19.739 15.865-34.583 23.031-44.339z"/><path d="m37.843 394.827h57.163c3.466 0 6.537 2.232 7.608 5.528l17.664 54.366c-12.652-4.07-31.196-11.72-50.168-26.447-14.971-11.622-25.387-23.908-32.267-33.447z"/></g><path d="m117.387 445.818c-12.074-1.648-23.725-4.628-34.801-8.783 11.338 7.136 23.593 13.178 37.681 17.646z" fill="#7a6d79"/><path d="m218.626 454.721 17.664-54.366c1.071-3.296 4.143-5.528 7.608-5.528h57.163c-7.612 10.557-20.271 25.47-39.544 38.79-16.168 11.175-31.553 17.469-42.891 21.104z" fill="#918291"/><path d="m301.005 394.827h-42.206c-8.576 9.345-18.23 17.685-28.774 24.811l-11.393 35.063c30.741-9.329 62.68-31.859 82.373-59.874z" fill="#7a6d79"/><path d="m331.453 301.294-46.246-33.6c-2.804-2.037-3.977-5.648-2.906-8.944l17.664-54.366c7.221 9.828 16.679 25.021 23.367 45.347 6.874 20.892 8.187 39.205 8.121 51.563z" fill="#918291"/><path d="m327.112 263.184c-4.281-19.195-14.315-41.562-27.165-58.743l-8.285 25.499c5.65 15.511 8.997 32.127 9.626 49.438l30.106 21.873c.137-11.596-1.436-26.156-4.282-38.067z" fill="#7a6d79"/><path d="m165.338 244.188-53.978 39.217c-2.453 1.783-3.48 4.942-2.543 7.826l20.618 63.455c.937 2.884 3.625 4.837 6.657 4.837h66.72c3.033 0 5.72-1.953 6.657-4.837l20.618-63.455c.937-2.884-.089-6.044-2.543-7.826l-53.978-39.217c-2.452-1.782-5.774-1.782-8.228 0z" fill="#918291"/></g></g><path d="m486.053 416.123-124.162-344.145c-6.07-16.824-21.547-27.694-39.43-27.694s-33.359 10.871-39.43 27.694l-21.625 59.938c-1.406 3.896.613 8.194 4.509 9.6 3.897 1.408 8.195-.613 9.6-4.509l21.625-59.938c4.731-13.113 16.182-17.785 25.32-17.785s20.589 4.672 25.32 17.785l55.223 153.064h-79.364c-26.872-59.276-89.696-99.224-154.189-99.224-92.493 0-169.45 77.791-169.45 169.452 0 .048.002.096.002.144.22 86.803 72.518 166.011 157.094 169.308h330.73c14.485 0 26.27-11.789 26.27-26.28 0-15.821-12.515-28.176-28.043-27.41zm-77.636-170.99 21.687 60.11h-91.286c.443-20.952-2.606-41.193-9.166-60.11zm-84.59 59.892c-.908 30.452-10.673 58.716-26.803 82.302h-55.484l-25.211-29.484 21.439-65.982 41.855-18.951zm-121.378 46.998h-65.994l-20.393-62.764 53.39-38.79 53.39 38.79zm120.786-65.969-33.915-24.64 12.938-39.819c11.434 19.205 18.82 41.085 20.977 64.459zm-31.656-80.132-17.185 52.89-41.856 18.951-55.586-40.385v-49.962l44.648-32.438c27.915 10.043 52.126 27.91 69.979 50.944zm-88.198-56.249-33.929 24.651-33.929-24.651c21.847-4.95 45.923-4.964 67.858 0zm-86.076 5.304 44.647 32.438v49.962l-55.586 40.385-41.856-18.95-17.185-52.89c17.853-23.035 42.064-40.901 69.98-50.945zm-80.66 66.617 12.938 39.819-33.915 24.64c2.158-23.373 9.543-45.253 20.977-64.459zm5.234 165.733c-16.13-23.586-25.895-51.85-26.802-82.302l44.203-32.115 41.855 18.951 21.439 65.982-25.211 29.484zm11.669 15h41.822l12.952 39.861c-21.103-9.131-39.779-22.836-54.774-39.861zm159.168 46.31c-13.734 4.014-28.251 6.176-43.264 6.176s-29.53-2.162-43.264-6.176l-16.938-52.13 25.211-29.484h69.982l25.211 29.484zm30.819-46.31h41.821c-14.995 17.025-33.671 30.73-54.773 39.86zm255.561 41.206c0 6.22-5.056 11.28-11.27 11.28h-248.735c26.826-12.143 49.951-31.066 67.166-54.584.636-.612 1.161-1.336 1.55-2.139 15.957-22.523 26.543-49.098 29.917-77.847h97.792l34.592 95.88h-154.082c-4.142 0-7.5 3.358-7.5 7.5s3.358 7.5 7.5 7.5h164.735c.009 0 .017.002.025.002.015 0 .03-.002.046-.002h6.994c6.562-.043 11.27 5.77 11.27 12.41z"/></g></svg>